<?xml version="1.0" encoding="UTF-8"?>
<svg id="Layer_2" data-name="Layer 2" xmlns="http://www.w3.org/2000/svg" viewBox="0 0 700.64 700">
  <defs>
    <style>
      .cls-1 {
        fill: #fff;
        fill-rule: evenodd;
      }
    </style>
  </defs>
  <g id="svg5">
    <g id="layer1">
      <path id="rect40272" class="cls-1" d="m65.7,225c-40.64,0-71.62,37.9-64.75,77.59l56.88,328.37c6.96,40.19,42.54,69.04,82.86,69.04h419.19c40.37,0,75.32-29.03,82.76-68.7.02-.11.03-.23.05-.34l56.84-328.03v-.05c7.46-39.97-23.99-77.88-64.65-77.88H65.7Zm0,50h569.19c10.4,0,17.44,8.48,15.53,18.7-.02.11-.03.23-.05.34l-56.88,328.17c-3.11,16.28-17.01,27.78-33.59,27.78H140.7c-16.67,0-30.83-11.58-33.59-27.54l-56.88-328.42c-1.84-10.64,5.04-19.04,15.48-19.04h0Z"/>
      <path id="path41727" class="cls-1" d="m232.6,1.66c-6.21,2.37-11.21,7.11-13.92,13.18l-100,225c-5.61,12.62.07,27.39,12.68,33,0,0,0,0,.01,0,12.62,5.61,27.39-.07,33-12.68,0,0,0,0,0-.01l100-225c5.61-12.62-.07-27.39-12.68-33,0,0,0,0-.01,0-6.05-2.68-12.91-2.86-19.09-.49h0Z"/>
      <path id="path41729" class="cls-1" d="m468,1.66c-6.18-2.37-13.04-2.19-19.09.49-12.62,5.6-18.31,20.38-12.7,33h0s100,225.01,100,225.01c5.61,12.6,20.35,18.28,32.96,12.7,12.62-5.6,18.31-20.38,12.7-33h0S481.87,14.84,481.87,14.84c-2.69-6.06-7.68-10.8-13.87-13.18h0Z"/>
      <path id="path43195" class="cls-1" d="m349.98,325c-13.81,0-25,11.19-25,25v200c0,13.81,11.19,25,25,25s25-11.19,25-25v-200c0-13.81-11.19-25-25-25Z"/>
      <path id="path43243" class="cls-1" d="m249.98,325c-13.81,0-25,11.19-25,25v200c0,13.81,11.19,25,25,25s25-11.19,25-25v-200c0-13.81-11.19-25-25-25Z"/>
      <path id="path43245" class="cls-1" d="m449.98,325c-13.81,0-25,11.19-25,25v200c0,13.81,11.19,25,25,25s25-11.19,25-25v-200c0-13.81-11.19-25-25-25Z"/>
    </g>
  </g>
</svg>